<?xml version="1.0" standalone="no"?>
<!DOCTYPE svg PUBLIC "-//W3C//DTD SVG 20010904//EN"
 "http://www.w3.org/TR/2001/REC-SVG-20010904/DTD/svg10.dtd">
<svg version="1.0" xmlns="http://www.w3.org/2000/svg"
 width="980.000000pt" height="980.000000pt" viewBox="0 0 980.000000 980.000000"
 preserveAspectRatio="xMidYMid meet">
<metadata>
Created by potrace 1.14, written by Peter Selinger 2001-2017
</metadata>
<g transform="translate(0.000000,980.000000) scale(0.100000,-0.100000)"
fill="#000000" stroke="none">
<path d="M0 4900 l0 -4900 4900 0 4900 0 0 4900 0 4900 -4900 0 -4900 0 0
-4900z m3605 3232 l430 -7 64 -27 c64 -27 64 -27 100 -8 96 49 143 55 374 52
458 -7 2050 -5 2207 2 134 6 179 5 240 -8 207 -44 378 -195 468 -416 28 -71
53 -161 102 -380 11 -52 34 -135 50 -185 16 -49 48 -171 71 -270 47 -197 50
-237 34 -528 -7 -137 -7 -138 15 -144 12 -3 59 -24 103 -45 462 -223 643 -762
410 -1223 -152 -302 -460 -495 -791 -495 l-97 0 -59 -143 c-116 -279 -314
-643 -494 -907 -333 -490 -782 -950 -1262 -1294 -205 -146 -656 -449 -670
-450 -14 0 -208 130 -590 395 -743 517 -1322 1190 -1715 1994 -51 105 -112
238 -136 297 l-44 108 -100 0 c-157 0 -312 44 -447 126 -397 241 -552 746
-358 1161 98 209 265 368 479 455 l66 27 3 60 c2 44 -2 70 -16 98 -31 60 -45
149 -38 233 6 79 120 504 141 530 7 8 16 38 19 65 9 66 101 393 133 473 76
192 200 333 360 412 98 48 173 60 358 54 88 -2 354 -8 590 -12z"/>
<path d="M2780 8014 c-154 -41 -301 -188 -373 -373 -33 -86 -110 -356 -126
-445 -6 -33 -11 -79 -11 -103 0 -31 -4 -43 -15 -43 -21 0 -28 -18 -81 -205
-36 -129 -48 -192 -52 -263 -4 -88 -3 -96 27 -156 29 -60 31 -70 31 -179 l0
-115 -72 -22 c-221 -66 -392 -212 -489 -415 -58 -121 -73 -190 -73 -335 0
-153 15 -216 85 -360 46 -92 63 -116 148 -200 53 -52 122 -110 154 -129 137
-81 332 -123 481 -104 68 8 79 7 83 -6 3 -9 32 -81 65 -161 302 -738 784
-1406 1393 -1928 200 -172 357 -287 819 -598 l128 -86 42 29 c22 16 106 73
186 128 80 54 188 128 240 163 865 591 1516 1399 1891 2347 26 66 50 119 53
119 43 -11 180 -13 249 -4 322 40 586 276 674 601 24 87 24 289 0 379 -23 90
-96 233 -154 305 -92 114 -238 209 -390 255 l-73 22 0 158 c0 93 5 170 11 187
23 58 13 180 -30 363 -46 201 -67 273 -89 315 -9 17 -17 46 -18 65 -4 59 -82
376 -110 447 -35 89 -103 192 -162 244 -26 23 -81 58 -122 78 l-75 36 -195 -2
c-107 -2 -423 -2 -701 -2 -309 1 -509 -2 -512 -8 -4 -6 -28 -6 -59 -2 -29 4
-191 8 -360 8 -277 1 -308 -1 -308 -15 0 -11 -5 -14 -17 -9 -79 30 -142 37
-337 33 -218 -4 -244 -9 -337 -74 l-37 -25 -36 25 c-87 58 -109 61 -485 59
-232 -2 -347 -6 -351 -14 -5 -7 -27 -4 -68 10 -52 18 -85 21 -224 20 -110 0
-181 -5 -218 -15z m381 -204 c56 -29 79 -71 79 -146 0 -61 -18 -174 -29 -185
-3 -4 -66 -10 -140 -13 l-134 -7 7 33 c4 18 10 48 13 66 l6 32 -54 0 c-30 0
-60 -4 -67 -8 -7 -5 -24 -55 -37 -113 -14 -57 -28 -112 -31 -121 -5 -16 5 -17
133 -11 129 5 141 5 181 -16 51 -26 72 -66 72 -139 0 -67 -64 -371 -89 -419
-43 -86 -119 -149 -215 -183 -76 -26 -368 -90 -411 -90 -43 0 -88 21 -109 52
-24 34 -20 127 10 239 l26 97 145 27 c79 15 146 25 150 22 3 -3 -2 -40 -12
-82 -9 -42 -15 -78 -13 -81 8 -7 133 18 146 30 12 12 62 211 62 248 0 22 6 21
-105 3 -131 -21 -185 -20 -226 8 -44 29 -60 76 -53 147 8 73 89 379 119 445
30 70 85 128 148 159 49 25 59 26 219 26 150 0 173 -2 209 -20z m1620 5 c56
-20 77 -40 102 -94 18 -42 19 -59 12 -385 -7 -370 -13 -419 -61 -470 -61 -64
-167 -84 -469 -85 -106 -1 -126 2 -165 22 -54 28 -80 73 -80 143 0 28 16 201
35 384 28 270 38 341 56 376 23 50 79 100 124 113 17 5 114 10 216 10 143 1
196 -3 230 -14z m2311 -17 c80 -48 132 -139 164 -291 8 -39 12 -72 10 -75 -5
-4 -267 16 -273 21 -2 2 -8 30 -14 63 -6 32 -16 62 -22 66 -7 4 -36 8 -64 8
-51 0 -53 -1 -53 -27 1 -31 34 -211 41 -217 2 -2 49 -9 104 -16 55 -6 123 -17
151 -25 96 -27 173 -104 214 -212 23 -62 87 -351 96 -433 11 -100 -42 -170
-129 -170 -58 0 -383 77 -448 106 -69 31 -141 103 -169 170 -20 46 -54 223
-45 233 5 4 96 -8 231 -30 l61 -11 14 -81 c14 -80 15 -82 49 -93 19 -6 54 -14
78 -18 35 -5 42 -4 42 10 0 28 -41 239 -49 252 -3 6 -64 20 -134 31 -149 22
-219 52 -272 113 -49 58 -69 120 -95 291 -35 236 -23 297 71 345 42 22 53 23
219 20 170 -3 176 -4 222 -30z m-3142 11 c92 -20 140 -81 140 -182 0 -84 -27
-281 -45 -323 -23 -56 -81 -111 -141 -134 -31 -11 -105 -24 -180 -30 -71 -7
-130 -13 -131 -13 -3 -4 -63 -378 -63 -396 0 -15 -9 -22 -32 -26 -219 -36
-281 -45 -286 -41 -4 5 142 807 200 1104 l11 52 238 0 c134 0 260 -5 289 -11z
m1675 -12 c91 -41 124 -102 134 -251 8 -118 -1 -171 -35 -207 l-24 -26 21 -19
c12 -10 28 -33 35 -50 12 -28 51 -471 43 -478 -6 -5 -300 21 -305 27 -3 2 -9
91 -13 196 -4 105 -11 194 -14 198 -4 3 -32 8 -63 11 l-57 5 5 -202 5 -203
-136 3 c-75 1 -144 5 -153 7 -17 4 -18 36 -18 501 0 274 3 501 7 505 4 4 125
6 268 4 223 -3 266 -6 300 -21z m832 -52 c6 -38 14 -94 18 -124 l7 -53 -94 3
-93 4 3 -25 c1 -14 22 -185 47 -380 59 -459 62 -492 44 -485 -8 2 -77 14 -153
25 -76 11 -141 21 -143 24 -2 2 -22 190 -44 417 -22 228 -42 420 -44 427 -3 8
-31 12 -94 12 l-90 0 -5 33 c-3 17 -8 69 -11 115 l-6 82 323 -2 323 -3 12 -70z
m-2212 -1321 c27 -18 45 -62 45 -110 l0 -34 -60 0 -60 0 0 31 c0 29 -2 30 -37
27 l-38 -3 0 -60 0 -60 70 -6 c84 -6 99 -12 114 -45 14 -31 15 -229 1 -255
-18 -33 -64 -49 -144 -49 -122 0 -153 23 -163 124 l-6 56 62 0 61 0 0 -41 0
-40 43 3 c40 3 42 5 45 37 2 19 1 50 -3 68 l-6 33 -60 0 c-112 0 -139 34 -139
170 0 145 23 169 163 170 63 0 94 -4 112 -16z m756 -13 l29 -29 0 -222 c0
-246 -5 -269 -61 -289 -41 -14 -167 -14 -207 0 -59 20 -62 35 -62 284 l0 227
29 29 c29 28 32 29 136 29 104 0 107 -1 136 -29z m-351 -31 l0 -50 -45 0 c-28
0 -46 -5 -47 -12 -3 -27 -4 -79 -6 -260 l-2 -188 -60 0 -60 0 0 230 0 230 -45
0 -45 0 0 50 0 50 155 0 155 0 0 -50z m743 39 c43 -19 54 -58 49 -170 -1 -28
-9 -53 -21 -65 -18 -20 -18 -21 0 -43 16 -20 19 -41 19 -147 l0 -124 -65 0
-65 0 0 115 0 115 -35 0 -35 0 0 -115 0 -115 -60 0 -60 0 0 280 0 280 125 0
c70 0 135 -5 148 -11z m387 -39 l0 -50 -69 0 -70 0 2 -62 2 -63 63 -3 63 -3
-3 -47 -3 -47 -63 -3 -63 -3 3 -62 3 -62 68 -3 68 -3 -3 -47 -3 -47 -127 -3
-128 -3 0 281 0 280 130 0 130 0 0 -50z m1707 -152 c-4 -46 -7 -98 -7 -115 0
-30 -3 -33 -32 -33 -18 -1 -66 -7 -107 -14 l-73 -13 6 36 c3 20 6 74 6 121 l0
85 47 -3 c27 -1 68 1 93 7 78 16 74 20 67 -71z m-4965 -47 c2 -64 3 -117 2
-119 -1 -2 -47 2 -102 9 l-99 13 -7 98 c-4 54 -5 102 -2 106 2 4 49 8 104 8
l100 2 4 -117z m1258 -36 l0 -75 -33 0 c-56 0 -850 69 -855 75 -3 3 12 5 34 6
21 0 210 15 419 33 209 19 392 34 408 35 l27 1 0 -75z m2717 33 c216 -18 391
-34 389 -35 -4 -4 -810 -73 -853 -73 l-33 0 0 76 0 77 53 -6 c28 -3 228 -21
444 -39z m-3992 -165 c80 -20 94 -28 88 -53 -4 -14 -14 -20 -35 -20 -16 0 -27
4 -24 9 3 5 -1 14 -9 21 -13 10 -15 9 -15 -9 0 -17 -6 -21 -34 -21 -26 0 -35
5 -40 23 -5 18 -8 19 -15 7 -5 -8 -7 -18 -5 -22 3 -4 -9 -8 -26 -8 -21 0 -38
8 -51 23 l-18 22 -1 -22 c0 -32 -54 -33 -71 -1 l-12 23 -10 -23 c-14 -31 -62
-31 -72 1 l-8 22 -4 -22 c-3 -17 -11 -23 -33 -23 -26 0 -46 22 -35 40 6 10
120 41 185 50 69 9 167 2 245 -17z m5070 10 c32 -5 36 -8 20 -15 -15 -6 -12
-7 12 -4 36 6 126 -21 117 -35 -3 -5 -10 -9 -15 -9 -6 0 -7 5 -4 10 3 6 2 10
-4 10 -5 0 -12 -4 -15 -9 -8 -12 20 -22 39 -15 10 4 15 0 16 -12 1 -15 3 -13
10 6 6 17 8 3 5 -47 -2 -47 0 -70 7 -66 6 4 8 -4 5 -21 -7 -34 32 -146 111
-316 124 -267 159 -425 118 -523 -15 -34 -37 -43 -37 -16 0 6 4 7 10 4 6 -4 7
1 3 11 -4 10 -2 15 3 11 6 -3 10 20 11 56 1 34 -1 56 -4 49 -4 -10 -8 -10 -19
-1 -8 7 -14 7 -14 1 0 -5 7 -12 15 -16 26 -10 18 -53 -15 -76 -16 -12 -30 -27
-30 -33 0 -7 7 -4 14 6 19 24 23 21 22 -13 -1 -16 -4 -30 -8 -30 -5 0 -8 -5
-8 -11 0 -5 5 -7 11 -3 24 15 -11 -32 -54 -72 -69 -65 -130 -97 -168 -89 -22
5 -29 4 -25 -4 4 -6 15 -11 24 -12 14 0 13 -2 -3 -9 -27 -12 -43 -12 -25 0 12
8 12 10 -5 10 -11 0 -27 -5 -35 -10 -12 -8 -12 -10 5 -11 13 0 6 -5 -18 -14
-21 -8 -44 -12 -51 -9 -8 3 -17 1 -21 -5 -3 -6 -17 -11 -31 -11 -14 0 -23 3
-21 8 6 8 -96 7 -120 -2 -9 -4 -50 1 -92 11 -42 9 -68 19 -58 21 9 2 15 7 12
12 -2 4 17 6 43 4 l47 -3 -45 8 c-25 4 -57 5 -72 0 -22 -6 -28 -4 -28 7 0 8
-5 12 -10 9 -6 -4 -7 -11 -4 -17 4 -7 0 -7 -12 0 -17 9 -19 20 -15 98 3 61 6
81 11 64 7 -23 8 -22 9 9 1 29 4 33 22 28 12 -3 35 -3 51 0 28 5 26 7 -24 24
-67 23 -71 23 -63 0 3 -11 2 -22 -3 -25 -5 -3 -12 16 -15 42 -11 85 -57 225
-108 321 l-49 94 44 96 c91 199 115 271 117 346 1 42 2 45 8 20 l7 -30 7 40
c4 22 6 54 6 70 -1 29 -1 30 -9 5 l-8 -25 -1 28 c-1 18 4 27 15 27 8 0 35 9
60 21 25 11 53 18 62 16 13 -4 11 -5 -4 -6 -12 0 -27 -8 -34 -16 -10 -13 -9
-15 9 -15 12 0 19 5 16 10 -3 6 0 10 7 10 7 0 24 3 38 6 18 4 21 3 11 -4 -9
-7 2 -8 35 -5 68 7 77 11 24 13 -25 1 -54 5 -65 9 -11 5 10 6 50 3 39 -3 74
-10 78 -16 6 -8 10 -7 14 2 2 6 21 13 41 14 21 1 -6 5 -58 8 l-95 6 80 2 c44
1 98 -1 120 -5z m-5525 -73 c0 -15 -7 -20 -25 -20 -14 0 -25 4 -25 8 0 7 30
27 48 31 1 1 2 -8 2 -19z m620 -12 c0 -17 -45 -3 -48 15 -3 15 0 16 22 6 14
-7 26 -16 26 -21z m4437 -96 c-6 -96 -26 -159 -100 -309 l-45 -91 -63 70 c-37
40 -63 77 -61 86 9 42 68 142 114 192 27 30 47 48 42 40 -7 -13 -5 -13 9 -1 9
7 14 17 11 22 -3 5 0 8 7 7 7 -2 13 2 14 9 0 11 61 63 73 63 3 0 2 -39 -1 -88z
m749 63 c10 -8 14 -15 9 -15 -6 0 -16 5 -23 12 -9 9 -12 9 -12 0 0 -12 6 -14
45 -16 11 -1 19 -5 19 -11 -1 -5 7 -19 19 -30 12 -12 17 -14 13 -5 -11 22 60
-58 95 -108 77 -109 119 -258 113 -403 -3 -83 -21 -169 -36 -169 -5 0 -7 -4
-4 -9 4 -5 1 -20 -4 -33 -10 -21 -10 -21 -5 5 4 19 2 26 -5 22 -17 -10 -11 4
10 25 20 20 27 50 11 50 -5 0 -12 12 -16 28 -4 15 -10 21 -12 14 -3 -6 -9 -10
-14 -6 -11 6 -11 2 -3 -21 5 -13 9 -14 15 -4 5 9 10 4 15 -15 4 -16 2 -32 -4
-38 -13 -13 -34 32 -35 74 0 15 -5 25 -10 21 -5 -3 -6 4 -2 17 4 14 3 20 -3
16 -5 -3 -13 1 -16 10 -3 8 -2 12 4 9 5 -3 5 7 -1 25 -12 33 -24 42 -14 10 10
-32 -2 -23 -14 10 -6 18 -6 28 -1 25 6 -3 7 1 4 9 -3 9 -10 13 -15 10 -5 -3
-9 6 -9 20 0 13 -3 26 -7 28 -15 6 -121 244 -131 293 -19 90 -23 126 -17 145
8 24 15 25 41 5z m-5624 -26 c-3 -22 -1 -30 7 -25 6 4 11 18 11 32 0 23 3 25
38 22 34 -3 37 -5 34 -30 -5 -38 15 -36 23 2 6 27 11 30 44 30 36 0 37 -1 33
-31 -3 -22 -1 -30 7 -25 6 4 11 18 11 32 0 21 5 24 35 24 32 0 35 -2 35 -30 0
-16 5 -30 10 -30 6 0 10 11 10 25 0 22 4 25 34 25 31 0 33 -2 28 -26 -4 -20
-1 -25 9 -22 8 3 15 14 17 26 2 16 10 22 28 22 19 0 24 -5 24 -25 0 -30 20
-33 27 -5 3 11 12 20 20 20 8 0 17 -9 20 -20 6 -22 28 -27 37 -7 12 28 161
-162 186 -239 12 -34 11 -35 -59 -110 -85 -91 -138 -170 -187 -281 -24 -53
-42 -82 -50 -79 -7 3 -29 8 -48 12 -29 5 -36 11 -36 30 0 29 -20 32 -27 3 -4
-15 -11 -19 -27 -15 -11 3 -36 6 -54 6 -20 0 -34 6 -37 15 -16 50 -17 51 -27
23 -9 -27 -13 -28 -74 -28 -56 0 -64 2 -64 19 0 10 -7 21 -15 25 -11 4 -15 -1
-15 -19 0 -25 -3 -27 -76 -39 -27 -4 -33 -1 -44 22 l-13 27 -6 -30 c-5 -24
-13 -31 -50 -42 -40 -12 -45 -11 -63 10 l-19 22 4 -27 c4 -24 -1 -29 -36 -43
-28 -11 -43 -13 -50 -6 -6 6 -17 11 -24 11 -10 0 -11 -5 -3 -19 8 -16 5 -23
-22 -39 -25 -16 -35 -18 -49 -9 -23 14 -36 2 -20 -17 13 -15 7 -36 -8 -36 -10
0 -66 122 -80 175 -19 67 -24 205 -12 284 20 130 83 257 174 352 39 41 51 49
59 38 7 -11 12 -10 25 9 20 29 58 31 50 2 -7 -29 12 -25 23 5 13 35 50 34 50
-1 0 -31 23 -28 28 4 3 17 10 22 33 22 24 0 29 -4 29 -25 0 -14 5 -25 10 -25
6 0 10 11 10 23 0 31 7 37 45 37 30 0 31 -2 27 -31z m1541 -152 c39 -10 76
-29 114 -58 79 -62 84 -73 48 -101 -17 -12 -50 -41 -75 -63 l-45 -40 -242 1
-242 1 -39 35 c-21 19 -53 45 -70 58 -18 13 -32 29 -32 36 0 14 62 71 111 101
80 50 326 65 472 30z m-566 -206 c26 -21 61 -53 78 -70 l30 -32 -28 -77 c-16
-42 -45 -128 -65 -190 l-36 -112 -95 -52 c-53 -28 -124 -69 -159 -91 l-63 -40
-40 39 c-50 48 -88 124 -95 190 -6 43 -1 62 29 132 50 116 116 211 174 249 39
27 188 91 215 93 3 0 28 -17 55 -39z m904 -2 c45 -18 95 -46 122 -69 48 -43
110 -134 145 -212 l20 -47 -47 -68 c-26 -37 -67 -102 -91 -143 -24 -41 -44
-76 -46 -78 -1 -2 -19 7 -41 21 -21 13 -77 45 -125 71 l-87 47 -51 157 c-28
86 -58 171 -65 189 l-14 32 76 71 c86 81 75 79 204 29z m2389 6 c118 -32 226
-87 295 -148 42 -38 75 -58 75 -46 0 7 2 10 5 8 9 -9 -7 -49 -18 -42 -6 3 -7
1 -3 -6 4 -6 2 -28 -4 -47 -9 -28 -15 -33 -22 -23 -7 10 -8 9 -4 -6 6 -21 3
-28 -54 -130 -47 -85 -89 -145 -102 -145 -6 0 -8 -3 -5 -7 9 -9 -23 -44 -34
-37 -5 3 -6 -1 -3 -9 3 -9 -24 -41 -72 -86 -81 -76 -214 -151 -267 -151 l-27
0 0 243 c0 211 4 260 25 387 14 80 25 146 25 148 0 2 4 1 9 -2 4 -3 6 6 3 19
-2 15 0 25 7 25 6 0 10 3 10 8 -3 19 2 33 11 27 5 -3 7 0 4 9 -7 19 16 46 36
41 8 -2 58 -16 110 -30z m-424 -10 c8 -13 13 -29 9 -35 -4 -6 -1 -9 6 -8 19 4
55 -70 78 -165 18 -73 22 -130 28 -371 l6 -286 -30 0 c-52 0 -202 82 -268 147
-78 76 -187 222 -181 240 3 8 2 11 -4 8 -5 -3 -21 15 -36 40 -22 39 -24 48
-13 63 11 14 11 15 -1 4 -12 -10 -19 -2 -42 49 -32 70 -68 183 -67 208 1 19 4
11 18 -44 19 -71 24 -73 77 -29 68 56 96 74 107 67 6 -3 7 -1 3 5 -8 14 30 35
47 26 6 -4 9 -3 4 1 -16 18 145 89 235 104 4 0 15 -10 24 -24z m-1198 -101 c3
-31 3 -32 -55 -39 -66 -8 -178 -30 -208 -41 -20 -7 -20 -7 -2 14 38 42 95 73
163 87 91 18 98 16 102 -21z m213 3 c19 -8 59 -38 89 -66 l55 -51 -40 16 c-22
9 -91 26 -155 38 l-115 23 -3 33 -3 33 69 -6 c38 -3 85 -12 103 -20z m-130
-194 c52 -31 36 -41 -61 -41 -49 0 -90 4 -90 8 0 9 31 36 50 43 30 11 73 7
101 -10z m2023 -87 c14 -35 34 -108 45 -162 20 -95 20 -99 2 -138 -38 -87
-179 -240 -288 -314 -56 -39 -209 -72 -400 -88 l-83 -7 1 84 c1 46 3 77 6 68
3 -13 11 -15 41 -8 101 21 177 53 166 71 -4 7 -3 8 4 4 33 -20 217 137 311
264 31 42 67 99 80 127 13 29 27 50 31 48 4 -3 7 1 6 8 -2 21 35 117 44 112 4
-3 19 -34 34 -69z m-4734 -1 c0 -14 5 -25 10 -25 6 0 10 11 10 25 0 24 2 25
65 25 63 0 65 -1 65 -25 0 -14 5 -25 10 -25 6 0 10 9 10 19 0 28 13 33 71 25
50 -7 51 -8 45 -35 -7 -36 11 -39 24 -4 9 24 10 24 57 10 26 -8 50 -15 52 -15
2 0 -2 -6 -8 -14 -7 -9 -14 -78 -18 -185 l-6 -170 -66 -26 c-95 -36 -174 -48
-271 -42 -170 11 -332 88 -449 212 -53 57 -60 69 -50 86 10 20 11 20 24 2 17
-23 33 -8 17 17 -10 16 -7 23 20 45 31 26 32 26 39 7 4 -11 13 -23 20 -27 9
-6 10 1 5 27 -6 31 -3 36 19 46 37 17 53 15 60 -8 10 -32 28 -24 22 9 -6 27
-4 29 38 40 57 14 55 15 55 -15 0 -14 4 -23 10 -19 6 3 10 17 10 30 0 24 13
30 83 34 23 1 27 -3 27 -24z m3309 -50 c57 -110 110 -183 191 -266 81 -83 199
-169 231 -169 13 0 18 -4 13 -12 -4 -7 -4 -10 1 -6 4 4 21 0 37 -8 16 -8 33
-12 39 -9 5 4 8 1 7 -5 -2 -7 17 -18 42 -26 67 -20 84 -15 20 7 -51 17 -46 18
31 2 l29 -5 0 -81 0 -80 -82 7 c-109 9 -197 22 -283 42 -110 26 -118 32 -134
106 -21 93 -67 220 -119 328 -26 52 -45 101 -44 109 2 7 -1 10 -7 7 -12 -8
-34 30 -26 44 4 6 1 9 -6 8 -7 -2 -15 5 -17 16 -2 10 0 16 6 12 5 -3 10 0 9 7
-2 67 18 58 62 -28z m-629 44 c0 -15 4 -19 16 -15 22 8 54 -2 54 -18 0 -9 -27
-12 -100 -12 -76 0 -100 3 -100 13 0 13 17 18 53 15 11 -1 17 5 17 18 0 16 7
20 30 20 24 0 30 -4 30 -21z m0 -98 c4 -17 15 -27 38 -33 23 -6 32 -14 32 -30
0 -18 -4 -20 -32 -13 -43 11 -84 11 -130 1 -35 -8 -38 -6 -38 13 0 16 8 23 29
27 21 5 33 15 40 36 13 37 52 36 61 -1z m-1678 -64 c24 -18 97 -71 163 -117
66 -46 125 -90 132 -97 8 -10 10 -70 6 -211 l-5 -197 -26 -23 c-36 -32 -135
-79 -216 -102 l-67 -19 -67 46 c-170 115 -255 196 -273 261 -15 50 -19 258 -7
303 6 20 39 44 150 107 79 45 148 82 155 82 6 0 31 -15 55 -33z m751 7 c99
-50 187 -105 187 -117 0 -7 -13 -46 -29 -87 -39 -101 -68 -214 -81 -318 -21
-161 -14 -146 -92 -198 l-70 -47 -62 11 c-65 12 -211 79 -239 109 -13 16 -18
51 -23 199 -4 100 -4 192 -1 206 5 17 47 53 144 121 76 53 152 108 168 121 17
14 34 25 38 26 4 0 31 -12 60 -26z m3244 -30 c-3 -3 -12 -4 -19 -1 -8 3 -5 6
6 6 11 1 17 -2 13 -5z m-2303 -50 c5 -21 12 -34 19 -31 23 9 57 -12 57 -34 0
-20 -3 -21 -42 -14 -58 10 -104 10 -156 0 -42 -8 -44 -7 -40 16 2 19 10 25 35
27 28 3 33 8 39 38 6 32 9 34 44 34 35 0 38 -2 44 -36z m-2 -141 c2 -28 8 -37
23 -38 47 -4 66 -16 59 -38 -3 -12 -7 -23 -9 -24 -1 -2 -27 2 -58 8 -43 9 -71
9 -114 0 -55 -11 -72 -6 -73 20 0 15 33 32 61 32 27 0 29 3 29 39 0 38 0 38
39 38 39 0 40 -1 43 -37z m-2271 -134 c57 -210 204 -411 392 -538 27 -18 51
-40 54 -49 23 -62 260 -424 382 -582 198 -257 435 -508 676 -715 179 -154 294
-239 594 -443 l133 -91 97 66 c53 36 139 95 191 131 387 265 713 563 1024 937
127 153 348 476 450 660 21 36 44 60 84 84 176 108 334 330 388 544 16 65 25
75 52 58 10 -6 3 -34 -33 -126 -350 -906 -950 -1682 -1735 -2246 -58 -42 -199
-139 -313 -217 l-208 -142 -272 186 c-400 274 -580 418 -825 658 -404 395
-726 841 -982 1361 -78 159 -227 513 -218 519 10 9 43 24 46 22 1 -2 12 -36
23 -77z m4812 54 c-13 -2 -33 -2 -45 0 -13 2 -3 4 22 4 25 0 35 -2 23 -4z
m-2543 -88 c0 -37 3 -44 18 -43 9 1 30 0 45 0 23 -2 28 -6 25 -24 -3 -22 -7
-23 -126 -24 -100 -2 -125 1 -129 13 -8 20 7 32 47 36 33 4 35 6 38 46 3 41 4
41 43 41 l39 0 0 -45z m1485 27 c-3 -3 -11 0 -18 7 -9 10 -8 11 6 5 10 -3 15
-9 12 -12z m-88 -18 c-10 -11 -58 -13 -51 -3 3 5 17 9 31 9 15 0 23 -3 20 -6z
m653 -83 c-6 -12 -45 -51 -88 -87 -84 -72 -205 -136 -334 -178 l-78 -25 -82
20 c-46 10 -99 21 -118 24 l-35 5 3 49 4 48 106 6 c60 3 111 1 116 -4 15 -14
43 -11 149 16 129 33 250 80 312 121 54 36 62 37 45 5z m-2054 -76 c1 -11 2
-29 3 -41 1 -17 6 -20 30 -16 40 6 71 -12 64 -39 -5 -19 -10 -20 -57 -13 -62
10 -86 10 -152 0 -47 -8 -52 -6 -57 13 -7 27 22 44 66 39 33 -3 33 -3 36 53 1
28 3 30 34 27 24 -2 32 -8 33 -23z m904 -39 c25 -1 55 -7 67 -14 12 -7 28 -12
35 -11 7 0 4 5 -7 10 -17 8 -17 9 5 4 14 -3 78 -8 143 -12 l117 -6 0 -52 0
-51 -42 -2 c-24 -2 -75 -11 -115 -22 -79 -22 -88 -20 -232 35 -51 19 -71 32
-71 44 0 10 -3 40 -7 66 l-6 47 34 -18 c19 -9 54 -18 79 -18z m-2890 -30 c55
-51 148 -121 216 -164 29 -18 64 -51 79 -74 15 -22 45 -60 68 -85 l40 -44 -72
26 c-176 64 -330 185 -439 346 l-31 46 47 -5 c37 -4 56 -13 92 -46z m3645 24
c-11 -5 -33 -8 -50 -8 -29 1 -29 1 5 8 49 10 69 10 45 0z m-1651 -134 c1 -48
-20 -65 -61 -50 -23 8 -28 16 -28 44 -1 49 2 51 48 48 40 -3 40 -4 41 -42z
m-882 -78 l4 -56 -77 -41 c-42 -23 -103 -50 -134 -61 l-56 -19 46 51 c26 29
53 64 61 80 14 28 147 125 151 111 1 -5 3 -33 5 -65z m2098 21 c-46 -10 -155
-35 -187 -44 -10 -3 -2 2 17 11 42 20 144 43 185 42 23 0 20 -2 -15 -9z m202
-3 c73 -14 154 -41 173 -58 5 -5 -19 2 -55 15 -36 14 -99 30 -140 36 -41 7
-76 14 -79 16 -8 8 25 5 101 -9z m243 -96 c3 -6 -1 -7 -9 -4 -18 7 -21 14 -7
14 6 0 13 -4 16 -10z m-615 -48 c-9 -3 -70 25 -70 33 0 2 18 -4 40 -13 21 -9
35 -18 30 -20z m495 8 c-3 -5 -12 -10 -18 -10 -7 0 -6 4 3 10 19 12 23 12 15
0z m-560 -10 c-3 -5 -14 -10 -23 -9 -14 0 -13 2 3 9 27 11 27 11 20 0z m238
-30 c30 0 37 -4 37 -20 0 -17 -6 -20 -47 -19 -36 0 -43 3 -28 9 11 4 30 6 43
3 12 -3 22 -1 22 4 0 5 -36 14 -81 20 -44 5 -85 15 -91 21 -5 5 15 4 49 -4 32
-8 75 -14 96 -14z m282 20 c-3 -5 -15 -10 -26 -10 -11 0 -18 -3 -16 -7 3 -5
-11 -8 -31 -9 -59 -1 -102 -8 -102 -15 0 -4 17 -5 38 -3 28 4 33 3 22 -5 -8
-6 -27 -11 -42 -11 -21 0 -28 5 -28 20 0 16 7 20 38 21 20 0 60 7 87 14 65 17
67 17 60 5z m-440 -20 c-3 -5 -12 -10 -18 -10 -7 0 -6 4 3 10 19 12 23 12 15
0z m-1157 -426 c22 -6 23 -9 20 -133 l-3 -126 -40 -2 c-92 -6 -283 -35 -323
-49 -23 -9 -49 -14 -56 -11 -13 5 -120 169 -133 203 -3 9 7 19 31 29 19 8 39
15 43 15 4 0 30 -41 57 -90 27 -50 56 -96 64 -102 7 -7 -2 17 -22 53 -37 67
-69 149 -62 156 13 13 170 44 258 52 143 12 140 11 166 5z m243 -30 c113 -22
259 -81 259 -106 0 -6 -18 -45 -41 -87 -45 -86 -26 -68 29 26 l36 62 30 -23
c17 -13 30 -31 30 -39 -1 -16 -91 -154 -105 -163 -5 -3 -27 4 -49 15 -38 18
-200 60 -300 78 l-45 8 -3 128 -3 127 43 -6 c24 -3 77 -12 119 -20z"/>
<path d="M2568 6883 c7 -3 16 -2 19 1 4 3 -2 6 -13 5 -11 0 -14 -3 -6 -6z"/>
<path d="M2438 6863 c6 -2 18 -2 25 0 6 3 1 5 -13 5 -14 0 -19 -2 -12 -5z"/>
<path d="M2568 6863 c6 -2 18 -2 25 0 6 3 1 5 -13 5 -14 0 -19 -2 -12 -5z"/>
<path d="M3046 6844 c-4 -14 -5 -28 -3 -31 3 -2 8 8 11 23 4 14 5 28 3 31 -3
2 -8 -8 -11 -23z"/>
<path d="M3071 6854 c-1 -28 -26 -60 -35 -46 -4 7 -35 12 -76 12 -55 0 -71 -4
-80 -17 -8 -13 -10 -13 -7 -3 3 9 -2 25 -10 35 -14 19 -14 19 -8 -7 4 -15 2
-34 -3 -44 -7 -13 -10 -8 -10 25 -1 24 -3 46 -6 49 -3 3 -6 -8 -6 -25 0 -47
-33 -69 -124 -83 -88 -13 -100 -8 -86 40 6 22 5 27 -7 26 -8 -1 -19 -9 -24
-17 -7 -11 -9 -11 -9 -1 0 7 -4 11 -9 7 -5 -3 -12 -1 -16 5 -3 5 -42 10 -86
10 -53 0 -79 4 -79 12 0 24 -9 0 -29 -74 -28 -106 -28 -179 2 -213 39 -45 101
-44 321 9 204 49 249 69 315 138 41 43 88 145 78 170 -3 7 -6 4 -6 -8z m-51
-118 c0 -2 -8 -10 -17 -17 -16 -13 -17 -12 -4 4 13 16 21 21 21 13z"/>
<path d="M4476 7642 c-3 -5 -14 -139 -26 -298 -11 -159 -22 -308 -25 -332 l-5
-43 78 3 77 3 6 50 c6 42 27 430 32 575 l2 45 -67 3 c-36 2 -69 -1 -72 -6z"/>
<path d="M4784 6864 c-18 -14 -18 -15 4 -4 12 6 22 13 22 15 0 8 -5 6 -26 -11z"/>
<path d="M4212 6833 c-10 -10 -6 -11 20 -6 42 8 44 10 15 15 -13 2 -29 -1 -35
-9z"/>
<path d="M4319 6827 c5 -5 21 -7 37 -5 27 3 26 4 -8 9 -22 3 -34 1 -29 -4z"/>
<path d="M4545 6830 c14 -6 3 -9 -40 -9 -33 0 -91 -4 -130 -9 l-70 -9 76 -1
c42 -1 79 1 82 5 4 3 46 6 94 6 l88 -1 -50 14 c-56 15 -81 17 -50 4z"/>
<path d="M4655 6819 c-5 -7 5 -8 32 -3 51 9 54 14 10 14 -20 0 -39 -5 -42 -11z"/>
<path d="M4238 6813 c7 -3 16 -2 19 1 4 3 -2 6 -13 5 -11 0 -14 -3 -6 -6z"/>
<path d="M4278 6803 c7 -3 16 -2 19 1 4 3 -2 6 -13 5 -11 0 -14 -3 -6 -6z"/>
<path d="M6695 6870 c3 -14 7 -35 9 -48 5 -38 38 -102 49 -95 6 3 7 1 3 -5 -4
-6 4 -23 16 -37 41 -47 136 -91 258 -119 63 -15 144 -34 180 -43 126 -30 200
-2 216 82 7 40 -23 215 -37 215 -5 0 -9 -6 -9 -12 0 -9 -3 -10 -8 -2 -4 7 -38
10 -87 9 -86 -2 -95 3 -113 50 -10 28 -11 27 -6 -15 3 -25 8 -56 10 -70 3 -14
3 -22 -1 -18 -4 3 -15 -2 -25 -12 -17 -17 -20 -17 -91 1 -41 10 -80 17 -87 14
-7 -3 -10 -1 -7 4 3 5 1 12 -5 16 -5 3 -11 18 -11 33 -1 27 -1 27 -8 -3 -7
-28 -7 -29 -15 -8 -4 13 -4 28 0 34 4 8 3 9 -4 5 -7 -4 -13 -17 -13 -29 -1
-14 -4 -9 -9 13 -6 31 -8 32 -9 8 -1 -25 -5 -27 -48 -30 -27 -2 -56 1 -65 7
-12 6 -22 4 -36 -8 -16 -15 -20 -15 -25 -4 -3 8 0 20 6 26 8 8 8 11 0 11 -6 0
-16 12 -22 28 -10 24 -11 24 -6 2z m492 -72 c-3 -8 -6 -5 -6 6 -1 11 2 17 5
13 3 -3 4 -12 1 -19z"/>
<path d="M7140 6846 c0 -9 5 -16 10 -16 6 0 10 4 10 9 0 6 -4 13 -10 16 -5 3
-10 -1 -10 -9z"/>
<path d="M7152 6800 c0 -14 2 -19 5 -12 2 6 2 18 0 25 -3 6 -5 1 -5 -13z"/>
<path d="M3665 7588 c-3 -18 -14 -84 -24 -145 l-17 -113 60 0 c34 0 66 4 73 8
7 4 19 57 28 117 8 61 18 122 21 138 l6 27 -71 0 -70 0 -6 -32z"/>
<path d="M3521 6864 c0 -11 3 -14 6 -6 3 7 2 16 -1 19 -3 4 -6 -2 -5 -13z"/>
<path d="M3247 6779 c-10 -50 -16 -93 -15 -94 9 -6 258 41 252 48 -5 4 0 5 10
1 16 -6 18 -4 14 14 -4 12 -2 25 3 28 5 3 9 20 8 37 l-1 32 -11 -27 c-6 -16
-14 -28 -19 -28 -4 0 -8 12 -8 28 0 16 -3 22 -8 15 -4 -7 -44 -13 -104 -15
l-97 -3 -3 28 c-2 17 -10 -8 -21 -64z"/>
<path d="M5340 7513 l0 -122 55 -6 c86 -11 89 -8 82 88 -4 45 -7 98 -7 119 l0
36 -65 4 -65 3 0 -122z"/>
<path d="M5762 6885 c0 -16 2 -22 5 -12 2 9 2 23 0 30 -3 6 -5 -1 -5 -18z"/>
<path d="M5295 6830 c-19 -8 -19 -9 3 -9 12 -1 22 4 22 9 0 6 -1 10 -2 9 -2 0
-12 -4 -23 -9z"/>
<path d="M5213 6823 c9 -2 25 -2 35 0 9 3 1 5 -18 5 -19 0 -27 -2 -17 -5z"/>
<path d="M5648 6823 c6 -2 18 -2 25 0 6 3 1 5 -13 5 -14 0 -19 -2 -12 -5z"/>
<path d="M5713 6818 c17 -6 37 -7 48 -2 15 7 7 9 -28 10 -44 2 -45 1 -20 -8z"/>
<path d="M5518 6813 c7 -3 16 -2 19 1 4 3 -2 6 -13 5 -11 0 -14 -3 -6 -6z"/>
<path d="M5575 6810 c17 -4 41 -8 55 -8 22 0 22 1 -5 8 -16 4 -41 8 -55 8 -22
0 -22 -1 5 -8z"/>
<path d="M5690 6800 c33 -11 90 -12 90 -2 0 4 -26 7 -58 8 -40 1 -49 -1 -32
-6z"/>
<path d="M6340 6849 c0 -5 -4 -7 -10 -4 -6 3 -7 -1 -4 -9 5 -14 -7 -16 -82
-17 -49 -1 -95 -1 -101 0 -14 2 -18 -46 -5 -65 7 -11 231 -48 239 -40 3 3 1
28 -4 58 -6 34 -14 52 -22 50 -8 -2 -10 4 -6 18 3 11 4 20 1 20 -3 0 -6 -5 -6
-11z m17 -61 c-3 -8 -6 -5 -6 6 -1 11 2 17 5 13 3 -3 4 -12 1 -19z"/>
<path d="M6110 6775 c0 -14 4 -25 9 -25 4 0 6 11 3 25 -2 14 -6 25 -8 25 -2 0
-4 -11 -4 -25z"/>
<path d="M4820 6150 l0 -201 43 3 42 3 0 195 0 195 -42 3 -43 3 0 -201z"/>
<path d="M5247 6344 c-4 -4 -7 -41 -7 -81 l0 -74 38 3 37 3 0 75 0 75 -30 3
c-17 2 -34 0 -38 -4z"/>
<path d="M7513 5993 c9 -2 25 -2 35 0 9 3 1 5 -18 5 -19 0 -27 -2 -17 -5z"/>
<path d="M7610 5990 c-18 -12 -2 -12 25 0 13 6 15 9 5 9 -8 0 -22 -4 -30 -9z"/>
<path d="M7638 5973 c7 -3 16 -2 19 1 4 3 -2 6 -13 5 -11 0 -14 -3 -6 -6z"/>
<path d="M7210 5960 c-18 -12 -2 -12 25 0 13 6 15 9 5 9 -8 0 -22 -4 -30 -9z"/>
<path d="M7932 5060 c0 -19 2 -27 5 -17 2 9 2 25 0 35 -3 9 -5 1 -5 -18z"/>
<path d="M7880 5050 c-9 -6 -10 -10 -3 -10 6 0 15 5 18 10 8 12 4 12 -15 0z"/>
<path d="M7818 5014 c-15 -8 -33 -24 -39 -37 -12 -21 -11 -21 8 -4 23 20 39
22 46 5 3 -8 6 -7 6 4 1 9 11 20 22 23 17 6 19 9 8 16 -18 11 -19 11 -51 -7z
m32 -4 c-8 -5 -19 -10 -25 -10 -5 0 -3 5 5 10 8 5 20 10 25 10 6 0 3 -5 -5
-10z"/>
<path d="M7725 4960 c19 -8 19 -9 1 -9 -11 -1 -17 -4 -13 -7 9 -9 48 6 42 17
-4 5 -16 9 -28 8 -21 0 -21 -1 -2 -9z"/>
<path d="M7655 4950 c-13 -5 -14 -9 -5 -9 8 0 24 4 35 9 13 5 14 9 5 9 -8 0
-24 -4 -35 -9z"/>
<path d="M7301 4936 c2 -2 24 -6 49 -9 30 -4 38 -3 25 3 -19 8 -83 14 -74 6z"/>
<path d="M7585 4930 c27 -12 43 -12 25 0 -8 5 -22 9 -30 9 -10 0 -8 -3 5 -9z"/>
<path d="M7675 4930 c-3 -6 1 -7 9 -4 18 7 21 14 7 14 -6 0 -13 -4 -16 -10z"/>
<path d="M7757 4929 c7 -7 15 -10 18 -7 3 3 -2 9 -12 12 -14 6 -15 5 -6 -5z"/>
<path d="M7438 4923 c23 -2 61 -2 85 0 23 2 4 4 -43 4 -47 0 -66 -2 -42 -4z"/>
<path d="M7920 4925 c0 -5 5 -17 10 -25 5 -8 10 -10 10 -5 0 6 -5 17 -10 25
-5 8 -10 11 -10 5z"/>
<path d="M7880 4910 c-8 -5 -11 -12 -8 -16 4 -3 14 1 23 10 18 17 9 21 -15 6z"/>
<path d="M7900 4885 c-7 -9 -11 -18 -8 -20 3 -3 11 1 18 10 7 9 11 18 8 20 -3
3 -11 -1 -18 -10z"/>
<path d="M7858 4870 c16 -19 15 -33 -3 -27 -17 7 -27 -4 -17 -20 5 -8 14 -6
29 7 l22 18 -22 18 c-12 10 -16 12 -9 4z"/>
<path d="M7183 4795 c0 -27 2 -38 4 -22 2 15 2 37 0 50 -2 12 -4 0 -4 -28z"/>
<path d="M7804 4821 c21 -23 26 -26 26 -11 0 5 -10 15 -22 21 -23 12 -23 12
-4 -10z"/>
<path d="M7770 4811 c0 -5 7 -12 16 -15 24 -9 27 -7 10 9 -17 17 -26 19 -26 6z"/>
<path d="M7760 4770 c0 -5 7 -7 15 -4 8 4 15 8 15 10 0 2 -7 4 -15 4 -8 0 -15
-4 -15 -10z"/>
<path d="M7283 4713 c9 -2 23 -2 30 0 6 3 -1 5 -18 5 -16 0 -22 -2 -12 -5z"/>
<path d="M7618 4713 c7 -3 16 -2 19 1 4 3 -2 6 -13 5 -11 0 -14 -3 -6 -6z"/>
<path d="M7050 5880 c-9 -6 -10 -10 -3 -10 6 0 15 5 18 10 8 12 4 12 -15 0z"/>
<path d="M8113 5445 c0 -22 2 -30 4 -17 2 12 2 30 0 40 -3 9 -5 -1 -4 -23z"/>
<path d="M8111 5368 c-1 -15 -5 -29 -11 -33 -5 -3 -7 -12 -3 -20 3 -8 0 -15
-6 -15 -6 0 -11 -5 -11 -10 0 -15 39 12 45 30 3 8 1 29 -4 45 l-9 30 -1 -27z"/>
<path d="M8100 5266 c0 -8 5 -18 10 -21 6 -3 10 3 10 14 0 12 -4 21 -10 21 -5
0 -10 -6 -10 -14z"/>
<path d="M6394 5519 c-3 -6 -1 -16 6 -22 10 -9 11 -9 5 2 -4 8 -2 17 6 22 9 6
10 9 2 9 -6 0 -15 -5 -19 -11z"/>
<path d="M6028 5513 c6 -2 18 -2 25 0 6 3 1 5 -13 5 -14 0 -19 -2 -12 -5z"/>
<path d="M6122 5385 c0 -16 2 -22 5 -12 2 9 2 23 0 30 -3 6 -5 -1 -5 -18z"/>
<path d="M5661 5184 c0 -11 3 -14 6 -6 3 7 2 16 -1 19 -3 4 -6 -2 -5 -13z"/>
<path d="M6940 5176 c0 -8 4 -17 9 -20 5 -4 7 3 4 14 -6 23 -13 26 -13 6z"/>
<path d="M6974 4829 c-3 -6 -2 -15 3 -20 5 -5 9 -1 9 11 0 23 -2 24 -12 9z"/>
<path d="M5968 4363 c7 -3 16 -2 19 1 4 3 -2 6 -13 5 -11 0 -14 -3 -6 -6z"/>
</g>
</svg>
